<?xml version="1.0" encoding="UTF-8"?>
<!DOCTYPE svg PUBLIC "-//W3C//DTD SVG 1.1//EN" "http://www.w3.org/Graphics/SVG/1.1/DTD/svg11.dtd">
<svg xmlns="http://www.w3.org/2000/svg" xmlns:xlink="http://www.w3.org/1999/xlink" version="1.1" width="699px" height="698px" viewBox="-0.5 -0.5 699 698"><defs/><g><rect x="4" y="4" width="690" height="690" fill="none" stroke="none" pointer-events="all"/><path d="M 480.72 225.72 L 349 174" fill="none" stroke="rgb(0, 0, 0)" stroke-width="8" stroke-miterlimit="10" pointer-events="stroke"/><ellipse cx="349" cy="94" rx="40" ry="40" fill="#050505" stroke="rgb(0, 0, 0)" stroke-width="8" pointer-events="all"/><ellipse cx="509" cy="254" rx="40" ry="40" fill="transparent" stroke="rgb(0, 0, 0)" stroke-width="8" pointer-events="all"/><ellipse cx="349" cy="273" rx="40" ry="40" fill="transparent" stroke="rgb(0, 0, 0)" stroke-width="8" pointer-events="all"/><ellipse cx="189" cy="254" rx="40" ry="40" fill-opacity="0.85" fill="#050505" stroke="rgb(0, 0, 0)" stroke-opacity="0.85" stroke-width="8" pointer-events="all"/><path d="M 349 174 L 349 233" fill="none" stroke="#000000" stroke-width="8" stroke-miterlimit="10" pointer-events="stroke"/><path d="M 348.83 134 L 349 174 L 217.28 225.72" fill="none" stroke="rgb(0, 0, 0)" stroke-width="8" stroke-miterlimit="10" pointer-events="stroke"/><path d="M 269.72 385.72 L 189 334" fill="none" stroke="rgb(0, 0, 0)" stroke-width="8" stroke-miterlimit="10" pointer-events="stroke"/><ellipse cx="298" cy="414" rx="40" ry="40" fill="transparent" stroke="rgb(0, 0, 0)" stroke-width="8" pointer-events="all"/><ellipse cx="189" cy="433" rx="40" ry="40" fill-opacity="0.7" fill="#050505" stroke="rgb(0, 0, 0)" stroke-opacity="0.7" stroke-width="8" pointer-events="all"/><ellipse cx="78" cy="414" rx="40" ry="40" fill="transparent" stroke="rgb(0, 0, 0)" stroke-width="8" pointer-events="all"/><path d="M 189 334 L 106.28 385.72" fill="none" stroke="rgb(0, 0, 0)" stroke-width="8" stroke-miterlimit="10" pointer-events="stroke"/><ellipse cx="619" cy="414" rx="40" ry="40" fill="transparent" stroke="rgb(0, 0, 0)" stroke-width="8" pointer-events="all"/><ellipse cx="399" cy="414" rx="40" ry="40" fill="transparent" stroke="rgb(0, 0, 0)" stroke-width="8" pointer-events="all"/><path d="M 427.28 385.72 L 509 334" fill="none" stroke="rgb(0, 0, 0)" stroke-width="8" stroke-miterlimit="10" pointer-events="stroke"/><path d="M 508.83 294 L 509 334 L 590.72 385.72" fill="none" stroke="rgb(0, 0, 0)" stroke-width="8" stroke-miterlimit="10" pointer-events="stroke"/><ellipse cx="589" cy="534" rx="40" ry="40" fill="transparent" stroke="rgb(0, 0, 0)" stroke-width="8" pointer-events="all"/><ellipse cx="429" cy="534" rx="40" ry="40" fill="transparent" stroke="rgb(0, 0, 0)" stroke-width="8" pointer-events="all"/><path d="M 446.84 496.64 L 509 334" fill="none" stroke="rgb(0, 0, 0)" stroke-width="8" stroke-miterlimit="10" pointer-events="stroke"/><ellipse cx="249" cy="593" rx="40" ry="40" fill-opacity="0.6" fill="#050505" stroke="rgb(0, 0, 0)" stroke-opacity="0.6" stroke-width="8" pointer-events="all"/><ellipse cx="129" cy="593" rx="40" ry="40" fill="transparent" stroke="rgb(0, 0, 0)" stroke-width="8" pointer-events="all"/><path d="M 157.28 564.72 L 189 513" fill="none" stroke="rgb(0, 0, 0)" stroke-width="8" stroke-miterlimit="10" pointer-events="stroke"/><path d="M 188.83 473 L 189 513 L 220.72 564.72" fill="none" stroke="rgb(0, 0, 0)" stroke-opacity="0.7" stroke-width="8" stroke-miterlimit="10" pointer-events="stroke"/><path d="M 189 294 L 189 393" fill="none" stroke="rgb(0, 0, 0)" stroke-opacity="0.85" stroke-width="8" stroke-miterlimit="10" pointer-events="stroke"/><path d="M 571.8 495.04 L 509 334" fill="none" stroke="rgb(0, 0, 0)" stroke-width="8" stroke-miterlimit="10" pointer-events="stroke"/><ellipse cx="509" cy="614" rx="40" ry="40" fill="transparent" stroke="rgb(0, 0, 0)" stroke-width="8" pointer-events="all"/><path d="M 509 574 L 509 334" fill="none" stroke="rgb(0, 0, 0)" stroke-width="8" stroke-miterlimit="10" pointer-events="stroke"/></g></svg>