<?xml version="1.0" encoding="UTF-8"?>
<!DOCTYPE svg PUBLIC "-//W3C//DTD SVG 1.1//EN" "http://www.w3.org/Graphics/SVG/1.1/DTD/svg11.dtd">
<svg xmlns="http://www.w3.org/2000/svg" xmlns:xlink="http://www.w3.org/1999/xlink" version="1.1" width="698px" height="698px" viewBox="-0.5 -0.5 698 698"><defs/><g><rect x="4" y="4" width="690" height="690" fill="none" stroke="none" pointer-events="all"/><path d="M 400.72 200.72 L 309 149" fill="none" stroke="rgb(0, 0, 0)" stroke-width="8" stroke-miterlimit="10" pointer-events="stroke"/><ellipse cx="309" cy="69" rx="40" ry="40" fill="#9dc5bb" stroke="#5e807f" stroke-width="8" pointer-events="all"/><ellipse cx="429" cy="229" rx="40" ry="40" fill="transparent" stroke="rgb(0, 0, 0)" stroke-width="8" pointer-events="all"/><ellipse cx="309" cy="248" rx="40" ry="40" fill="transparent" stroke="rgb(0, 0, 0)" stroke-width="8" pointer-events="all"/><ellipse cx="189" cy="229" rx="40" ry="40" fill-opacity="0.6" fill="#9dc5bb" stroke="#5e807f" stroke-opacity="0.6" stroke-width="8" pointer-events="all"/><path d="M 309 149 L 309 208" fill="none" stroke="#000000" stroke-width="8" stroke-miterlimit="10" pointer-events="stroke"/><path d="M 220.72 320.72 L 189 309" fill="none" stroke="rgb(0, 0, 0)" stroke-width="8" stroke-miterlimit="10" pointer-events="stroke"/><ellipse cx="249" cy="349" rx="40" ry="40" fill="transparent" stroke="rgb(0, 0, 0)" stroke-width="8" pointer-events="all"/><ellipse cx="129" cy="349" rx="40" ry="40" fill-opacity="0.6" fill="#9dc5bb" stroke="#5e807f" stroke-opacity="0.6" stroke-width="8" pointer-events="all"/><path d="M 440.72 590.72 L 349 539" fill="none" stroke="rgb(0, 0, 0)" stroke-width="8" stroke-miterlimit="10" pointer-events="stroke"/><ellipse cx="349" cy="459" rx="40" ry="40" fill="#9dc5bb" stroke="#5e807f" stroke-width="8" pointer-events="all"/><ellipse cx="469" cy="619" rx="40" ry="40" fill="transparent" stroke="rgb(0, 0, 0)" stroke-width="8" pointer-events="all"/><ellipse cx="349" cy="638" rx="40" ry="40" fill-opacity="0.6" fill="#9dc5bb" stroke="#5e807f" stroke-opacity="0.6" stroke-width="8" pointer-events="all"/><ellipse cx="229" cy="619" rx="40" ry="40" fill="transparent" stroke="rgb(0, 0, 0)" stroke-width="8" pointer-events="all"/><path d="M 257.28 590.72 L 349 539" fill="none" stroke="rgb(0, 0, 0)" stroke-width="8" stroke-miterlimit="10" pointer-events="stroke"/><ellipse cx="529" cy="309" rx="40" ry="40" fill="rgb(255, 255, 255)" stroke="rgb(0, 0, 0)" stroke-width="8" pointer-events="all"/><ellipse cx="529" cy="309" rx="40" ry="40" fill="#9dc5bb" stroke="#5e807f" stroke-width="8" pointer-events="all"/><ellipse cx="589" cy="429" rx="40" ry="40" fill-opacity="0.6" fill="#9dc5bb" stroke="#5e807f" stroke-opacity="0.6" stroke-width="8" pointer-events="all"/><ellipse cx="469" cy="429" rx="40" ry="40" fill="transparent" stroke="rgb(0, 0, 0)" stroke-width="8" pointer-events="all"/><path d="M 497.28 400.72 L 529 389" fill="none" stroke="rgb(0, 0, 0)" stroke-width="8" stroke-miterlimit="10" pointer-events="stroke"/><path d="M 349 539 L 349 598" fill="none" stroke="#5e807f" stroke-width="8" stroke-miterlimit="10" pointer-events="stroke"/><path d="M 348.83 499 L 348.83 539" fill="none" stroke="#5e807f" stroke-width="8" stroke-miterlimit="10" pointer-events="stroke"/><path d="M 308.83 109 L 309 149 L 217 202.52" fill="none" stroke="#5e807f" stroke-width="8" stroke-miterlimit="10" pointer-events="stroke"/><path d="M 528.83 349 L 529 389 L 560.72 400.72" fill="none" stroke="#5e807f" stroke-width="8" stroke-miterlimit="10" pointer-events="stroke"/><path d="M 188.83 269 L 189 309 L 157.28 320.72" fill="none" stroke="#5e807f" stroke-width="8" stroke-miterlimit="10" pointer-events="stroke"/></g></svg>