<?xml version="1.0" encoding="UTF-8"?>
<!DOCTYPE svg PUBLIC "-//W3C//DTD SVG 1.1//EN" "http://www.w3.org/Graphics/SVG/1.1/DTD/svg11.dtd">
<svg xmlns="http://www.w3.org/2000/svg" xmlns:xlink="http://www.w3.org/1999/xlink" version="1.1" width="698px" height="698px" viewBox="-0.5 -0.5 698 698"><defs><linearGradient x1="100%" y1="0%" x2="0%" y2="0%" id="mx-gradient-ffffff-1-749e9d-1-e-0"><stop offset="0%" style="stop-color: rgb(116, 158, 157); stop-opacity: 1;"/><stop offset="100%" style="stop-color: rgb(255, 255, 255); stop-opacity: 1;"/></linearGradient></defs><g><rect x="3" y="4" width="690" height="690" fill="none" stroke="none" pointer-events="all"/><path d="M 163 124 L 241.32 178.69 L 163 233.38 Z" fill="url(#mx-gradient-ffffff-1-749e9d-1-e-0)" stroke="none" transform="rotate(-90,202.16,178.69)" pointer-events="all"/><ellipse cx="203" cy="84" rx="40" ry="40" fill="rgb(255, 255, 255)" stroke="rgb(0, 0, 0)" stroke-width="8" pointer-events="all"/><ellipse cx="203" cy="84" rx="40" ry="40" fill="#9dc5bb" stroke="#5e807f" stroke-width="8" pointer-events="all"/><ellipse cx="283" cy="254" rx="40" ry="40" fill="transparent" stroke="rgb(0, 0, 0)" stroke-width="8" pointer-events="all"/><ellipse cx="123" cy="254" rx="40" ry="40" fill-opacity="0.6" fill="#9dc5bb" stroke="#5e807f" stroke-opacity="0.6" stroke-width="8" pointer-events="all"/><path d="M 203 134 L 260.81 220.72" fill="none" stroke="rgb(0, 0, 0)" stroke-width="8" stroke-miterlimit="10" pointer-events="stroke"/><path d="M 463 164 L 541.32 218.69 L 463 273.38 Z" fill="url(#mx-gradient-ffffff-1-749e9d-1-e-0)" stroke="none" transform="rotate(-90,502.16,218.69)" pointer-events="all"/><ellipse cx="503" cy="124" rx="40" ry="40" fill="rgb(255, 255, 255)" stroke="rgb(0, 0, 0)" stroke-width="8" pointer-events="all"/><ellipse cx="503" cy="124" rx="40" ry="40" fill="#9dc5bb" stroke="#5e807f" stroke-width="8" pointer-events="all"/><ellipse cx="583" cy="294" rx="40" ry="40" fill-opacity="0.8" fill="#9dc5bb" stroke="#5e807f" stroke-opacity="0.8" stroke-width="8" pointer-events="all"/><ellipse cx="423" cy="294" rx="40" ry="40" fill="transparent" stroke="rgb(0, 0, 0)" stroke-width="8" pointer-events="all"/><path d="M 447.08 260.48 L 503 174" fill="none" stroke="rgb(0, 0, 0)" stroke-width="8" stroke-miterlimit="10" pointer-events="stroke"/><path d="M 502.83 164 L 503 174 L 560.81 260.72" fill="none" stroke="#5e807f" stroke-width="8" stroke-miterlimit="10" pointer-events="stroke"/><path d="M 158.42 388.02 L 207.58 455.28 L 158.42 522.54 Z" fill="url(#mx-gradient-ffffff-1-749e9d-1-e-0)" stroke="none" transform="rotate(-90,183,455.28)" pointer-events="all"/><ellipse cx="183" cy="384" rx="40" ry="40" fill="rgb(255, 255, 255)" stroke="rgb(0, 0, 0)" stroke-width="8" pointer-events="all"/><ellipse cx="183" cy="384" rx="40" ry="40" fill="#9dc5bb" stroke="#5e807f" stroke-width="8" pointer-events="all"/><ellipse cx="283" cy="494" rx="40" ry="40" fill-opacity="0.8" fill="#9dc5bb" stroke="#5e807f" stroke-opacity="0.8" stroke-width="8" pointer-events="all"/><ellipse cx="83" cy="494" rx="40" ry="40" fill="transparent" stroke="rgb(0, 0, 0)" stroke-width="8" pointer-events="all"/><path d="M 119.32 474.88 L 183 434" fill="none" stroke="rgb(0, 0, 0)" stroke-width="8" stroke-miterlimit="10" pointer-events="stroke"/><path d="M 182.83 424 L 183 434 L 248.12 476.64" fill="none" stroke="#5e807f" stroke-width="8" stroke-miterlimit="10" pointer-events="stroke"/><path d="M 267.75 530.24 L 302.09 564.89 L 267.75 599.54 Z" fill="url(#mx-gradient-ffffff-1-749e9d-1-e-0)" stroke="none" transform="rotate(-90,284.92,564.89)" pointer-events="all"/><ellipse cx="343" cy="614" rx="40" ry="40" fill-opacity="0.6" fill="#9dc5bb" stroke="#5e807f" stroke-opacity="0.6" stroke-width="8" pointer-events="all"/><ellipse cx="223" cy="614" rx="40" ry="40" fill="transparent" stroke="rgb(0, 0, 0)" stroke-width="8" pointer-events="all"/><path d="M 247.08 580.48 L 283 544" fill="none" stroke="rgb(0, 0, 0)" stroke-width="8" stroke-miterlimit="10" pointer-events="stroke"/><path d="M 282.83 534 L 283 544 L 316.87 583.72" fill="none" stroke="#5e807f" stroke-width="8" stroke-miterlimit="10" pointer-events="stroke"/><path d="M 567.75 330.24 L 602.09 364.89 L 567.75 399.54 Z" fill="url(#mx-gradient-ffffff-1-749e9d-1-e-0)" stroke="none" transform="rotate(-90,584.92,364.89)" pointer-events="all"/><ellipse cx="643" cy="414" rx="40" ry="40" fill="transparent" stroke="rgb(0, 0, 0)" stroke-width="8" pointer-events="all"/><ellipse cx="523" cy="414" rx="40" ry="40" fill-opacity="0.6" fill="#9dc5bb" stroke="#5e807f" stroke-opacity="0.6" stroke-width="8" pointer-events="all"/><path d="M 507.75 450.24 L 542.09 484.89 L 507.75 519.54 Z" fill="url(#mx-gradient-ffffff-1-749e9d-1-e-0)" stroke="none" transform="rotate(-90,524.92,484.89)" pointer-events="all"/><ellipse cx="583" cy="534" rx="40" ry="40" fill-opacity="0.4" fill="#9dc5bb" stroke="#5e807f" stroke-opacity="0.4" stroke-width="8" pointer-events="all"/><ellipse cx="463" cy="534" rx="40" ry="40" fill="transparent" stroke="rgb(0, 0, 0)" stroke-width="8" pointer-events="all"/><path d="M 487.08 500.48 L 523 464" fill="none" stroke="rgb(0, 0, 0)" stroke-width="8" stroke-miterlimit="10" pointer-events="stroke"/><path d="M 522.83 454 L 523 464 L 556.87 503.72" fill="none" stroke="#5e807f" stroke-opacity="0.8" stroke-width="8" stroke-miterlimit="10" pointer-events="stroke"/><path d="M 147.08 220.48 L 203 134 L 203 124" fill="none" stroke="#5e807f" stroke-width="8" stroke-miterlimit="10" pointer-events="stroke"/><path d="M 583 344 L 620.81 380.72" fill="none" stroke="rgb(0, 0, 0)" stroke-width="8" stroke-miterlimit="10" pointer-events="stroke"/><path d="M 547.08 380.48 L 583 344 L 583 334" fill="none" stroke="#5e807f" stroke-opacity="0.8" stroke-width="8" stroke-miterlimit="10" pointer-events="stroke"/></g></svg>