<?xml version="1.0" encoding="UTF-8"?>
<!DOCTYPE svg PUBLIC "-//W3C//DTD SVG 1.1//EN" "http://www.w3.org/Graphics/SVG/1.1/DTD/svg11.dtd">
<svg xmlns="http://www.w3.org/2000/svg" xmlns:xlink="http://www.w3.org/1999/xlink" version="1.1" width="699px" height="698px" viewBox="-0.5 -0.5 699 698"><defs><linearGradient x1="100%" y1="0%" x2="0%" y2="0%" id="mx-gradient-ffffff-1-050505-1-e-0"><stop offset="0%" style="stop-color: rgb(5, 5, 5); stop-opacity: 1;"/><stop offset="100%" style="stop-color: rgb(255, 255, 255); stop-opacity: 1;"/></linearGradient></defs><g><rect x="4" y="4" width="690" height="690" fill="none" stroke="none" pointer-events="all"/><path d="M 164 124 L 242.32 178.69 L 164 233.38 Z" fill="url(#mx-gradient-ffffff-1-050505-1-e-0)" stroke="none" transform="rotate(-90,203.16,178.69)" pointer-events="all"/><ellipse cx="204" cy="84" rx="40" ry="40" fill="#050505" stroke="rgb(0, 0, 0)" stroke-width="8" pointer-events="all"/><ellipse cx="204" cy="84" rx="40" ry="40" fill="#050505" stroke="rgb(0, 0, 0)" stroke-width="8" pointer-events="all"/><ellipse cx="284" cy="254" rx="40" ry="40" fill="transparent" stroke="rgb(0, 0, 0)" stroke-width="8" pointer-events="all"/><ellipse cx="124" cy="254" rx="40" ry="40" fill-opacity="0.6" fill="#050505" stroke="rgb(0, 0, 0)" stroke-opacity="0.6" stroke-width="8" pointer-events="all"/><path d="M 204 134 L 261.81 220.72" fill="none" stroke="rgb(0, 0, 0)" stroke-width="8" stroke-miterlimit="10" pointer-events="stroke"/><path d="M 464 164 L 542.32 218.69 L 464 273.38 Z" fill="url(#mx-gradient-ffffff-1-050505-1-e-0)" stroke="none" transform="rotate(-90,503.16,218.69)" pointer-events="all"/><ellipse cx="504" cy="124" rx="40" ry="40" fill="#050505" stroke="rgb(0, 0, 0)" stroke-width="8" pointer-events="all"/><ellipse cx="504" cy="124" rx="40" ry="40" fill="#050505" stroke="rgb(0, 0, 0)" stroke-width="8" pointer-events="all"/><ellipse cx="584" cy="294" rx="40" ry="40" fill-opacity="0.8" fill="#050505" stroke="rgb(0, 0, 0)" stroke-opacity="0.8" stroke-width="8" pointer-events="all"/><ellipse cx="424" cy="294" rx="40" ry="40" fill="transparent" stroke="rgb(0, 0, 0)" stroke-width="8" pointer-events="all"/><path d="M 448.08 260.48 L 504 174" fill="none" stroke="rgb(0, 0, 0)" stroke-width="8" stroke-miterlimit="10" pointer-events="stroke"/><path d="M 503.83 164 L 504 174 L 561.81 260.72" fill="none" stroke="rgb(0, 0, 0)" stroke-width="8" stroke-miterlimit="10" pointer-events="stroke"/><path d="M 159.42 388.02 L 208.58 455.28 L 159.42 522.54 Z" fill="url(#mx-gradient-ffffff-1-050505-1-e-0)" stroke="none" transform="rotate(-90,184,455.28)" pointer-events="all"/><ellipse cx="184" cy="384" rx="40" ry="40" fill="#050505" stroke="rgb(0, 0, 0)" stroke-width="8" pointer-events="all"/><ellipse cx="184" cy="384" rx="40" ry="40" fill="#050505" stroke="rgb(0, 0, 0)" stroke-width="8" pointer-events="all"/><ellipse cx="284" cy="494" rx="40" ry="40" fill-opacity="0.8" fill="#050505" stroke="rgb(0, 0, 0)" stroke-opacity="0.8" stroke-width="8" pointer-events="all"/><ellipse cx="84" cy="494" rx="40" ry="40" fill="transparent" stroke="rgb(0, 0, 0)" stroke-width="8" pointer-events="all"/><path d="M 120.32 474.88 L 184 434" fill="none" stroke="rgb(0, 0, 0)" stroke-width="8" stroke-miterlimit="10" pointer-events="stroke"/><path d="M 183.83 424 L 184 434 L 249.12 476.64" fill="none" stroke="rgb(0, 0, 0)" stroke-width="8" stroke-miterlimit="10" pointer-events="stroke"/><path d="M 268.75 530.24 L 303.09 564.89 L 268.75 599.54 Z" fill="url(#mx-gradient-ffffff-1-050505-1-e-0)" stroke="none" transform="rotate(-90,285.92,564.89)" pointer-events="all"/><ellipse cx="344" cy="614" rx="40" ry="40" fill-opacity="0.6" fill="#050505" stroke="rgb(0, 0, 0)" stroke-opacity="0.6" stroke-width="8" pointer-events="all"/><ellipse cx="224" cy="614" rx="40" ry="40" fill="transparent" stroke="rgb(0, 0, 0)" stroke-width="8" pointer-events="all"/><path d="M 248.08 580.48 L 284 544" fill="none" stroke="rgb(0, 0, 0)" stroke-width="8" stroke-miterlimit="10" pointer-events="stroke"/><path d="M 283.83 534 L 284 544 L 317.84 583.74" fill="none" stroke="rgb(0, 0, 0)" stroke-width="8" stroke-miterlimit="10" pointer-events="stroke"/><path d="M 568.75 330.24 L 603.09 364.89 L 568.75 399.54 Z" fill="url(#mx-gradient-ffffff-1-050505-1-e-0)" stroke="none" transform="rotate(-90,585.92,364.89)" pointer-events="all"/><ellipse cx="644" cy="414" rx="40" ry="40" fill="transparent" stroke="rgb(0, 0, 0)" stroke-width="8" pointer-events="all"/><ellipse cx="524" cy="414" rx="40" ry="40" fill-opacity="0.6" fill="#050505" stroke="rgb(0, 0, 0)" stroke-opacity="0.6" stroke-width="8" pointer-events="all"/><path d="M 508.75 450.24 L 543.09 484.89 L 508.75 519.54 Z" fill="url(#mx-gradient-ffffff-1-050505-1-e-0)" stroke="none" transform="rotate(-90,525.92,484.89)" pointer-events="all"/><ellipse cx="584" cy="534" rx="40" ry="40" fill-opacity="0.4" fill="#050505" stroke="rgb(0, 0, 0)" stroke-opacity="0.4" stroke-width="8" pointer-events="all"/><ellipse cx="464" cy="534" rx="40" ry="40" fill="transparent" stroke="rgb(0, 0, 0)" stroke-width="8" pointer-events="all"/><path d="M 488.08 500.48 L 524 464" fill="none" stroke="rgb(0, 0, 0)" stroke-width="8" stroke-miterlimit="10" pointer-events="stroke"/><path d="M 523.83 454 L 524 464 L 557.84 503.74" fill="none" stroke="rgb(0, 0, 0)" stroke-opacity="0.8" stroke-width="8" stroke-miterlimit="10" pointer-events="stroke"/><path d="M 148.08 220.48 L 204 134 L 204 124" fill="none" stroke="rgb(0, 0, 0)" stroke-width="8" stroke-miterlimit="10" pointer-events="stroke"/><path d="M 584 344 L 621.81 380.72" fill="none" stroke="rgb(0, 0, 0)" stroke-width="8" stroke-miterlimit="10" pointer-events="stroke"/><path d="M 548.08 380.48 L 584 344 L 584 334" fill="none" stroke="rgb(0, 0, 0)" stroke-opacity="0.8" stroke-width="8" stroke-miterlimit="10" pointer-events="stroke"/></g></svg>